<svg width="374" height="171" viewBox="0 0 374 171" fill="none" xmlns="http://www.w3.org/2000/svg">
<ellipse cx="71" cy="88.5" rx="71" ry="59.5" fill="#FFD166"/>
<ellipse cx="117" cy="92.5" rx="71" ry="59.5" fill="#F4A261"/>
<ellipse cx="95" cy="111.5" rx="71" ry="59.5" fill="#4C956C"/>
<ellipse cx="95" cy="59.5" rx="71" ry="59.5" fill="#9C89B8"/>
<ellipse cx="95" cy="86.5" rx="71" ry="59.5" fill="#06A0B5"/>
<path d="M152.379 107.967C152.379 107.644 152.182 107.335 151.832 107.106C151.482 106.878 151.008 106.75 150.513 106.75H146.78C145.295 106.75 143.871 107.135 142.821 107.819C141.771 108.504 141.181 109.432 141.181 110.4V111.617H137.449C134.975 111.619 132.603 112.26 130.853 113.401C129.104 114.541 128.12 116.087 128.117 117.7V118.917C128.117 119.885 127.527 120.813 126.477 121.498C125.427 122.182 124.003 122.567 122.518 122.567H52.532C51.7896 122.567 51.0775 122.374 50.5525 122.032C50.0275 121.69 49.7326 121.226 49.7326 120.742C49.7326 120.258 50.0275 119.793 50.5525 119.451C51.0775 119.109 51.7896 118.917 52.532 118.917H55.3315C57.8054 118.915 60.1772 118.273 61.9266 117.133C63.6759 115.992 64.66 114.446 64.663 112.833V112.241C69.8471 114.988 76.3257 116.487 83.0068 116.483H83.0199C86.9163 116.487 90.7744 115.982 94.3666 114.998C97.9588 114.014 101.212 112.571 103.935 110.754C107.342 108.481 109.859 105.707 111.272 102.666C112.685 99.6243 112.952 96.4058 112.052 93.2827C115.767 93.5202 119.517 93.2123 123.026 92.3818C126.535 91.5512 129.715 90.219 132.331 88.483C132.518 88.3613 132.682 88.2396 132.852 88.118L133.123 87.9197C133.366 87.7486 133.529 87.5355 133.592 87.3057C133.655 87.0759 133.615 86.8392 133.478 86.6237C133.34 86.4082 133.11 86.2232 132.816 86.0905C132.521 85.9579 132.174 85.8833 131.816 85.8757C126.12 85.7558 120.718 84.1995 116.748 81.5346V81.5346L140.478 65.8116C140.737 65.6381 140.911 65.4181 140.978 65.1796C141.044 64.9412 141 64.6952 140.851 64.4733L142.717 63.8552C142.822 63.9379 142.93 64.017 143.044 64.0985C143.557 64.4404 144.17 64.7118 144.847 64.8967C145.523 65.0817 146.25 65.1764 146.983 65.1753V65.1753C147.717 65.1763 148.444 65.0815 149.121 64.8966C149.798 64.7117 150.411 64.4403 150.925 64.0985C151.734 63.5582 152.27 62.8696 152.461 62.125C152.653 61.3804 152.491 60.6154 151.996 59.9327L157.45 56.3192C157.713 56.1484 157.892 55.9303 157.964 55.6928C158.037 55.4552 157.998 55.2091 157.855 54.9858C157.711 54.7625 157.468 54.5722 157.158 54.4393C156.847 54.3065 156.483 54.237 156.112 54.2399H155.365V52H151.632V54.2399H150.139V52H146.407V54.2399H144.914V52H141.181V54.2399H140.435C140.187 54.2402 139.942 54.2727 139.714 54.3353C139.486 54.398 139.279 54.4896 139.106 54.6049L132.615 58.9095C132.267 58.6851 131.798 58.5589 131.308 58.5578C131.061 58.5582 130.816 58.5906 130.588 58.6533C130.36 58.716 130.153 58.8076 129.98 58.9228L110.262 71.9789C110.075 70.0774 110.466 68.1707 111.412 66.3678C112.357 64.565 113.84 62.9016 115.773 61.473C116.01 61.3002 116.167 61.0868 116.224 60.8581C116.281 60.6293 116.237 60.3947 116.097 60.1817C115.956 59.9688 115.725 59.7864 115.431 59.6561C115.137 59.5257 114.793 59.4529 114.437 59.446C110.975 59.3645 107.524 59.7553 104.307 60.5933C101.09 61.4313 98.1765 62.6982 95.7536 64.3127C93.113 66.0675 91.0963 68.1793 89.8463 70.4985C88.5963 72.8178 88.1434 75.2878 88.5199 77.7337C83.7792 77.1435 78.8882 77.3266 74.2824 78.2668C69.6766 79.2069 65.4988 80.8749 62.1211 83.1223C56.7647 86.6579 53.6635 91.3857 53.4426 96.3529C53.2216 101.32 55.8973 106.157 60.9304 109.889V112.833C60.9304 113.801 60.3405 114.73 59.2905 115.414C58.2405 116.099 56.8164 116.483 55.3315 116.483H52.532C50.7996 116.483 49.1382 116.932 47.9132 117.731C46.6882 118.529 46 119.612 46 120.742C46 121.871 46.6882 122.954 47.9132 123.753C49.1382 124.551 50.7996 125 52.532 125H122.518C124.992 124.998 127.364 124.357 129.113 123.216C130.863 122.076 131.847 120.529 131.85 118.917V117.7C131.85 116.732 132.44 115.804 133.49 115.119C134.54 114.435 135.964 114.05 137.449 114.05H141.181V115.267C141.181 116.235 141.771 117.163 142.821 117.848C143.871 118.532 145.295 118.917 146.78 118.917H150.513C151.008 118.917 151.482 118.788 151.832 118.56C152.182 118.332 152.379 118.023 152.379 117.7V116.483H157.978V114.05H152.379V111.617H157.978V109.183H152.379V107.967ZM141.23 56.6732H151.655L148.256 58.9241C147.914 59.1515 147.723 59.4573 147.723 59.7757C147.723 60.0942 147.914 60.4 148.256 60.6274C148.606 60.8609 148.803 61.1744 148.803 61.501C148.803 61.8275 148.606 62.141 148.256 62.3745C148.09 62.4864 147.891 62.5754 147.67 62.636C147.45 62.6966 147.213 62.7277 146.974 62.7274V62.7274C146.735 62.7276 146.499 62.6965 146.279 62.6358C146.059 62.5752 145.86 62.4863 145.694 62.3745C145.487 62.2327 145.335 62.0603 145.252 61.872C145.172 61.7024 145.037 61.5461 144.855 61.4142C144.673 61.2822 144.449 61.1778 144.198 61.1083C143.948 61.0387 143.677 61.0057 143.405 61.0115C143.133 61.0174 142.867 61.0619 142.624 61.142L138.216 62.602L135.239 60.6383L141.23 56.6732ZM131.308 61.5082L136.51 64.9514L136.527 64.9587L92.161 94.34L86.9466 90.8895L131.308 61.5082ZM79.9666 100.095L76.499 97.7965L79.1007 96.0762L84.3263 99.5352L81.7228 101.257L79.9666 100.095ZM80.3996 103.848L75.1889 107.299L67.3654 102.119L72.5779 98.6689L78.0761 102.309L80.3903 103.843L80.3996 103.848ZM77.8054 91.7509L80.4071 90.0281L93.4506 98.6665L90.8509 100.387L77.8054 91.7509ZM64.7787 84.8269C68.0223 82.6679 72.106 81.125 76.5921 80.3637C81.0783 79.6024 85.7976 79.6513 90.2443 80.5053C90.5532 80.5646 90.8804 80.5707 91.1941 80.5232C91.5077 80.4756 91.7972 80.3759 92.0342 80.2339C92.2713 80.0918 92.448 79.9122 92.547 79.7124C92.6461 79.5127 92.6642 79.2996 92.5996 79.0939C91.8415 76.7709 91.9752 74.3618 92.9887 72.0806C94.0022 69.7993 95.8642 67.7165 98.4094 66.0172C101.65 63.8582 105.889 62.4538 110.475 62.0205C106.987 65.6443 105.715 69.9903 106.91 74.1969L84.3282 89.1546L81.7377 87.4415C81.3809 87.2173 80.9046 87.092 80.4089 87.092C79.9133 87.092 79.437 87.2173 79.0801 87.4415L73.8545 90.8981C73.5125 91.1255 73.321 91.4313 73.321 91.7497C73.321 92.0682 73.5125 92.374 73.8545 92.6014L76.4841 94.34L73.8713 96.0652C73.5191 95.8411 73.0453 95.7168 72.5532 95.7193C72.061 95.7218 71.5903 95.851 71.2435 96.0786L63.4051 101.263C63.0631 101.49 62.8716 101.796 62.8716 102.114C62.8716 102.433 63.0631 102.739 63.4051 102.966L73.847 109.879C74.0207 109.994 74.2277 110.086 74.456 110.148C74.6843 110.21 74.9293 110.242 75.1768 110.242C75.4243 110.242 75.6693 110.21 75.8976 110.148C76.1258 110.086 76.3328 109.994 76.5065 109.879L84.3449 104.694C84.6869 104.466 84.8784 104.161 84.8784 103.842C84.8784 103.524 84.6869 103.218 84.3449 102.991L86.9466 101.275L89.5202 102.978C89.6939 103.093 89.9008 103.185 90.1291 103.247C90.3574 103.309 90.6024 103.341 90.8499 103.341C91.0974 103.341 91.3424 103.309 91.5707 103.247C91.799 103.185 92.006 103.093 92.1797 102.978L97.4053 99.5218C97.7473 99.2944 97.9388 98.9886 97.9388 98.6701C97.9388 98.3517 97.7473 98.0459 97.4053 97.8185L94.7832 96.0835L114.12 83.2683C117.761 85.6972 122.446 87.3491 127.557 88.006C125.098 89.2517 122.251 90.1315 119.215 90.5836C116.18 91.0357 113.029 91.0492 109.984 90.6231C109.67 90.58 109.343 90.5907 109.037 90.6541C108.73 90.7174 108.454 90.8313 108.235 90.9846C108.016 91.138 107.861 91.3256 107.786 91.5293C107.711 91.7331 107.718 91.946 107.806 92.1476C109.102 95.0904 109.18 98.2044 108.033 101.173C106.886 104.142 104.554 106.86 101.274 109.052C98.8967 110.637 96.0569 111.895 92.9219 112.754C89.7869 113.612 86.4202 114.053 83.0199 114.05H83.0087C79.6094 114.052 76.2441 113.609 73.1114 112.749C69.9788 111.889 67.1422 110.628 64.7694 109.041C64.5659 108.907 64.3606 108.762 64.1684 108.626C59.5525 105.37 57.0401 101.079 57.1541 96.6465C57.2681 92.2136 59.9998 87.9801 64.7806 84.8269H64.7787ZM148.646 116.483H146.78C146.285 116.483 145.81 116.355 145.46 116.127C145.11 115.899 144.914 115.589 144.914 115.267V110.4C144.914 110.077 145.11 109.768 145.46 109.54C145.81 109.312 146.285 109.183 146.78 109.183H148.646V116.483Z" fill="#0FF8CE"/>
<g filter="url(#filter0_d_1_10)">
<mask id="path-7-outside-1_1_10" maskUnits="userSpaceOnUse" x="200" y="92" width="157" height="41" fill="black">
<rect fill="white" x="200" y="92" width="157" height="41"/>
<path d="M206.965 101.909H212.292L217.832 124.523H218.173L231.156 101.909H236.482L231.653 131H227.477L230.985 109.949H230.715L218.641 130.957H215.161L210.104 109.935H209.835L206.312 131H202.136L206.965 101.909ZM261.571 101.909H265.974L262.807 121.043C262.475 123.079 261.699 124.883 260.477 126.455C259.256 128.017 257.703 129.248 255.818 130.148C253.934 131.038 251.831 131.483 249.511 131.483C247.182 131.483 245.226 131.038 243.645 130.148C242.063 129.248 240.922 128.017 240.222 126.455C239.53 124.883 239.355 123.079 239.696 121.043L242.864 101.909H247.253L244.142 120.688C243.934 122.004 244.033 123.173 244.44 124.196C244.857 125.219 245.548 126.024 246.514 126.611C247.49 127.188 248.716 127.477 250.193 127.477C251.67 127.477 252.991 127.188 254.156 126.611C255.33 126.024 256.287 125.219 257.026 124.196C257.774 123.173 258.252 122.004 258.46 120.688L261.571 101.909ZM286.915 109.722C286.925 108.292 286.461 107.198 285.523 106.44C284.595 105.683 283.298 105.304 281.631 105.304C280.438 105.304 279.373 105.493 278.435 105.872C277.507 106.241 276.75 106.753 276.163 107.406C275.585 108.05 275.23 108.784 275.097 109.608C274.974 110.299 275.036 110.896 275.282 111.398C275.538 111.9 275.902 112.321 276.376 112.662C276.859 112.993 277.389 113.273 277.967 113.5C278.544 113.718 279.103 113.898 279.643 114.04L282.37 114.778C283.251 115.006 284.146 115.313 285.055 115.702C285.964 116.09 286.783 116.601 287.512 117.236C288.241 117.87 288.786 118.656 289.146 119.594C289.505 120.531 289.576 121.653 289.359 122.96C289.075 124.608 288.407 126.071 287.356 127.349C286.305 128.628 284.917 129.636 283.194 130.375C281.47 131.114 279.472 131.483 277.2 131.483C275.022 131.483 273.189 131.137 271.702 130.446C270.225 129.755 269.141 128.775 268.45 127.506C267.758 126.227 267.512 124.712 267.711 122.96H272.129C272.024 124.011 272.214 124.887 272.697 125.588C273.189 126.279 273.88 126.795 274.771 127.136C275.661 127.468 276.669 127.634 277.796 127.634C279.046 127.634 280.187 127.439 281.219 127.051C282.252 126.653 283.104 126.104 283.776 125.403C284.449 124.693 284.861 123.865 285.012 122.918C285.164 122.056 285.04 121.35 284.643 120.801C284.254 120.252 283.667 119.797 282.881 119.438C282.105 119.078 281.219 118.76 280.225 118.486L276.944 117.548C274.719 116.914 273.033 115.981 271.887 114.75C270.741 113.519 270.329 111.89 270.651 109.864C270.935 108.187 271.636 106.724 272.754 105.474C273.871 104.224 275.263 103.254 276.93 102.562C278.596 101.862 280.405 101.511 282.356 101.511C284.326 101.511 286.002 101.862 287.384 102.562C288.767 103.263 289.79 104.229 290.452 105.46C291.115 106.691 291.347 108.112 291.148 109.722H286.915ZM293.268 131L298.098 101.909H316.337L315.712 105.688H301.862L300.385 114.551H313.283L312.658 118.315H299.76L298.283 127.222H312.303L311.678 131H293.268ZM326.589 101.909L321.759 131H317.37L322.2 101.909H326.589ZM325.225 98.5426C324.496 98.5426 323.876 98.2964 323.364 97.804C322.862 97.3021 322.63 96.7055 322.668 96.0142C322.697 95.3134 322.986 94.7169 323.535 94.2244C324.084 93.7225 324.728 93.4716 325.467 93.4716C326.205 93.4716 326.826 93.7225 327.327 94.2244C327.829 94.7169 328.061 95.3134 328.023 96.0142C327.995 96.7055 327.706 97.3021 327.157 97.804C326.608 98.2964 325.964 98.5426 325.225 98.5426ZM355.538 111.369H351.191C351.172 110.422 350.997 109.589 350.665 108.869C350.334 108.14 349.879 107.529 349.302 107.037C348.734 106.535 348.066 106.156 347.299 105.901C346.532 105.645 345.703 105.517 344.813 105.517C343.099 105.517 341.489 105.953 339.984 106.824C338.478 107.695 337.195 108.964 336.134 110.631C335.074 112.297 334.344 114.329 333.947 116.724C333.558 119.054 333.606 121.009 334.089 122.591C334.572 124.172 335.386 125.37 336.532 126.185C337.687 126.99 339.075 127.392 340.694 127.392C341.641 127.392 342.564 127.269 343.464 127.023C344.373 126.767 345.216 126.393 345.992 125.901C346.769 125.408 347.455 124.807 348.052 124.097C348.658 123.377 349.131 122.553 349.472 121.625H353.876C353.402 123.064 352.735 124.381 351.873 125.574C351.011 126.767 349.993 127.799 348.819 128.67C347.645 129.542 346.357 130.214 344.955 130.688C343.554 131.161 342.072 131.398 340.509 131.398C337.943 131.398 335.755 130.787 333.947 129.565C332.147 128.334 330.855 126.582 330.069 124.31C329.292 122.037 329.16 119.329 329.671 116.185C330.192 113.126 331.186 110.503 332.654 108.315C334.131 106.118 335.931 104.437 338.052 103.273C340.183 102.098 342.484 101.511 344.955 101.511C346.518 101.511 347.948 101.734 349.245 102.179C350.542 102.615 351.66 103.259 352.597 104.111C353.544 104.954 354.273 105.986 354.785 107.207C355.296 108.42 355.547 109.807 355.538 111.369Z"/>
</mask>
<path d="M206.965 101.909H212.292L217.832 124.523H218.173L231.156 101.909H236.482L231.653 131H227.477L230.985 109.949H230.715L218.641 130.957H215.161L210.104 109.935H209.835L206.312 131H202.136L206.965 101.909ZM261.571 101.909H265.974L262.807 121.043C262.475 123.079 261.699 124.883 260.477 126.455C259.256 128.017 257.703 129.248 255.818 130.148C253.934 131.038 251.831 131.483 249.511 131.483C247.182 131.483 245.226 131.038 243.645 130.148C242.063 129.248 240.922 128.017 240.222 126.455C239.53 124.883 239.355 123.079 239.696 121.043L242.864 101.909H247.253L244.142 120.688C243.934 122.004 244.033 123.173 244.44 124.196C244.857 125.219 245.548 126.024 246.514 126.611C247.49 127.188 248.716 127.477 250.193 127.477C251.67 127.477 252.991 127.188 254.156 126.611C255.33 126.024 256.287 125.219 257.026 124.196C257.774 123.173 258.252 122.004 258.46 120.688L261.571 101.909ZM286.915 109.722C286.925 108.292 286.461 107.198 285.523 106.44C284.595 105.683 283.298 105.304 281.631 105.304C280.438 105.304 279.373 105.493 278.435 105.872C277.507 106.241 276.75 106.753 276.163 107.406C275.585 108.05 275.23 108.784 275.097 109.608C274.974 110.299 275.036 110.896 275.282 111.398C275.538 111.9 275.902 112.321 276.376 112.662C276.859 112.993 277.389 113.273 277.967 113.5C278.544 113.718 279.103 113.898 279.643 114.04L282.37 114.778C283.251 115.006 284.146 115.313 285.055 115.702C285.964 116.09 286.783 116.601 287.512 117.236C288.241 117.87 288.786 118.656 289.146 119.594C289.505 120.531 289.576 121.653 289.359 122.96C289.075 124.608 288.407 126.071 287.356 127.349C286.305 128.628 284.917 129.636 283.194 130.375C281.47 131.114 279.472 131.483 277.2 131.483C275.022 131.483 273.189 131.137 271.702 130.446C270.225 129.755 269.141 128.775 268.45 127.506C267.758 126.227 267.512 124.712 267.711 122.96H272.129C272.024 124.011 272.214 124.887 272.697 125.588C273.189 126.279 273.88 126.795 274.771 127.136C275.661 127.468 276.669 127.634 277.796 127.634C279.046 127.634 280.187 127.439 281.219 127.051C282.252 126.653 283.104 126.104 283.776 125.403C284.449 124.693 284.861 123.865 285.012 122.918C285.164 122.056 285.04 121.35 284.643 120.801C284.254 120.252 283.667 119.797 282.881 119.438C282.105 119.078 281.219 118.76 280.225 118.486L276.944 117.548C274.719 116.914 273.033 115.981 271.887 114.75C270.741 113.519 270.329 111.89 270.651 109.864C270.935 108.187 271.636 106.724 272.754 105.474C273.871 104.224 275.263 103.254 276.93 102.562C278.596 101.862 280.405 101.511 282.356 101.511C284.326 101.511 286.002 101.862 287.384 102.562C288.767 103.263 289.79 104.229 290.452 105.46C291.115 106.691 291.347 108.112 291.148 109.722H286.915ZM293.268 131L298.098 101.909H316.337L315.712 105.688H301.862L300.385 114.551H313.283L312.658 118.315H299.76L298.283 127.222H312.303L311.678 131H293.268ZM326.589 101.909L321.759 131H317.37L322.2 101.909H326.589ZM325.225 98.5426C324.496 98.5426 323.876 98.2964 323.364 97.804C322.862 97.3021 322.63 96.7055 322.668 96.0142C322.697 95.3134 322.986 94.7169 323.535 94.2244C324.084 93.7225 324.728 93.4716 325.467 93.4716C326.205 93.4716 326.826 93.7225 327.327 94.2244C327.829 94.7169 328.061 95.3134 328.023 96.0142C327.995 96.7055 327.706 97.3021 327.157 97.804C326.608 98.2964 325.964 98.5426 325.225 98.5426ZM355.538 111.369H351.191C351.172 110.422 350.997 109.589 350.665 108.869C350.334 108.14 349.879 107.529 349.302 107.037C348.734 106.535 348.066 106.156 347.299 105.901C346.532 105.645 345.703 105.517 344.813 105.517C343.099 105.517 341.489 105.953 339.984 106.824C338.478 107.695 337.195 108.964 336.134 110.631C335.074 112.297 334.344 114.329 333.947 116.724C333.558 119.054 333.606 121.009 334.089 122.591C334.572 124.172 335.386 125.37 336.532 126.185C337.687 126.99 339.075 127.392 340.694 127.392C341.641 127.392 342.564 127.269 343.464 127.023C344.373 126.767 345.216 126.393 345.992 125.901C346.769 125.408 347.455 124.807 348.052 124.097C348.658 123.377 349.131 122.553 349.472 121.625H353.876C353.402 123.064 352.735 124.381 351.873 125.574C351.011 126.767 349.993 127.799 348.819 128.67C347.645 129.542 346.357 130.214 344.955 130.688C343.554 131.161 342.072 131.398 340.509 131.398C337.943 131.398 335.755 130.787 333.947 129.565C332.147 128.334 330.855 126.582 330.069 124.31C329.292 122.037 329.16 119.329 329.671 116.185C330.192 113.126 331.186 110.503 332.654 108.315C334.131 106.118 335.931 104.437 338.052 103.273C340.183 102.098 342.484 101.511 344.955 101.511C346.518 101.511 347.948 101.734 349.245 102.179C350.542 102.615 351.66 103.259 352.597 104.111C353.544 104.954 354.273 105.986 354.785 107.207C355.296 108.42 355.547 109.807 355.538 111.369Z" fill="#06A0B5"/>
<path d="M206.965 101.909V100.909H206.118L205.979 101.745L206.965 101.909ZM212.292 101.909L213.263 101.671L213.076 100.909H212.292V101.909ZM217.832 124.523L216.86 124.761L217.047 125.523H217.832V124.523ZM218.173 124.523V125.523H218.752L219.04 125.021L218.173 124.523ZM231.156 101.909V100.909H230.577L230.288 101.411L231.156 101.909ZM236.482 101.909L237.469 102.073L237.662 100.909H236.482V101.909ZM231.653 131V132H232.5L232.639 131.164L231.653 131ZM227.477 131L226.49 130.836L226.296 132H227.477V131ZM230.985 109.949L231.971 110.113L232.166 108.949H230.985V109.949ZM230.715 109.949V108.949H230.137L229.848 109.451L230.715 109.949ZM218.641 130.957V131.957H219.22L219.508 131.456L218.641 130.957ZM215.161 130.957L214.189 131.191L214.373 131.957H215.161V130.957ZM210.104 109.935L211.077 109.701L210.892 108.935H210.104V109.935ZM209.835 109.935V108.935H208.988L208.848 109.77L209.835 109.935ZM206.312 131V132H207.158L207.298 131.165L206.312 131ZM202.136 131L201.149 130.836L200.956 132H202.136V131ZM206.965 102.909H212.292V100.909H206.965V102.909ZM211.321 102.147L216.86 124.761L218.803 124.285L213.263 101.671L211.321 102.147ZM217.832 125.523H218.173V123.523H217.832V125.523ZM219.04 125.021L232.023 102.407L230.288 101.411L217.305 124.025L219.04 125.021ZM231.156 102.909H236.482V100.909H231.156V102.909ZM235.496 101.745L230.666 130.836L232.639 131.164L237.469 102.073L235.496 101.745ZM231.653 130H227.477V132H231.653V130ZM228.463 131.164L231.971 110.113L229.999 109.784L226.49 130.836L228.463 131.164ZM230.985 108.949H230.715V110.949H230.985V108.949ZM229.848 109.451L217.774 130.459L219.508 131.456L231.582 110.447L229.848 109.451ZM218.641 129.957H215.161V131.957H218.641V129.957ZM216.133 130.724L211.077 109.701L209.132 110.169L214.189 131.191L216.133 130.724ZM210.104 108.935H209.835V110.935H210.104V108.935ZM208.848 109.77L205.325 130.835L207.298 131.165L210.821 110.1L208.848 109.77ZM206.312 130H202.136V132H206.312V130ZM203.122 131.164L207.952 102.073L205.979 101.745L201.149 130.836L203.122 131.164ZM261.571 101.909V100.909H260.723L260.584 101.746L261.571 101.909ZM265.974 101.909L266.961 102.072L267.154 100.909H265.974V101.909ZM262.807 121.043L261.82 120.879L261.82 120.882L262.807 121.043ZM260.477 126.455L261.265 127.07L261.267 127.068L260.477 126.455ZM255.818 130.148L256.245 131.052L256.249 131.05L255.818 130.148ZM243.645 130.148L243.15 131.017L243.154 131.019L243.645 130.148ZM240.222 126.455L239.306 126.857L239.309 126.864L240.222 126.455ZM239.696 121.043L240.682 121.208L240.683 121.206L239.696 121.043ZM242.864 101.909V100.909H242.016L241.877 101.746L242.864 101.909ZM247.253 101.909L248.239 102.073L248.432 100.909H247.253V101.909ZM244.142 120.688L243.155 120.524L243.154 120.531L244.142 120.688ZM244.44 124.196L243.511 124.566L243.514 124.573L244.44 124.196ZM246.514 126.611L245.995 127.465L246.005 127.471L246.514 126.611ZM254.156 126.611L254.601 127.507L254.603 127.505L254.156 126.611ZM257.026 124.196L256.218 123.606L256.215 123.611L257.026 124.196ZM258.46 120.688L257.474 120.524L257.473 120.531L258.46 120.688ZM261.571 102.909H265.974V100.909H261.571V102.909ZM264.988 101.746L261.82 120.879L263.793 121.206L266.961 102.072L264.988 101.746ZM261.82 120.882C261.514 122.759 260.803 124.406 259.688 125.841L261.267 127.068C262.595 125.359 263.437 123.398 263.794 121.203L261.82 120.882ZM259.689 125.839C258.568 127.273 257.14 128.409 255.387 129.245L256.249 131.05C258.265 130.088 259.943 128.761 261.265 127.07L259.689 125.839ZM255.391 129.244C253.655 130.064 251.701 130.483 249.511 130.483V132.483C251.962 132.483 254.213 132.012 256.245 131.052L255.391 129.244ZM249.511 130.483C247.306 130.483 245.53 130.062 244.135 129.276L243.154 131.019C244.922 132.014 247.058 132.483 249.511 132.483V130.483ZM244.139 129.279C242.73 128.477 241.742 127.402 241.134 126.045L239.309 126.864C240.102 128.633 241.397 130.019 243.15 131.017L244.139 129.279ZM241.137 126.052C240.539 124.692 240.367 123.091 240.682 121.208L238.71 120.877C238.343 123.066 238.522 125.074 239.306 126.857L241.137 126.052ZM240.683 121.206L243.85 102.072L241.877 101.746L238.709 120.879L240.683 121.206ZM242.864 102.909H247.253V100.909H242.864V102.909ZM246.266 101.746L243.155 120.524L245.129 120.851L248.239 102.073L246.266 101.746ZM243.154 120.531C242.924 121.988 243.025 123.344 243.511 124.566L245.369 123.826C245.041 123.002 244.944 122.02 245.13 120.844L243.154 120.531ZM243.514 124.573C244.014 125.8 244.85 126.77 245.995 127.465L247.034 125.756C246.246 125.278 245.7 124.638 245.366 123.819L243.514 124.573ZM246.005 127.471C247.174 128.164 248.59 128.477 250.193 128.477V126.477C248.842 126.477 247.805 126.213 247.024 125.75L246.005 127.471ZM250.193 128.477C251.803 128.477 253.28 128.162 254.601 127.507L253.712 125.715C252.703 126.215 251.537 126.477 250.193 126.477V128.477ZM254.603 127.505C255.916 126.849 256.999 125.94 257.836 124.782L256.215 123.611C255.575 124.497 254.745 125.198 253.709 125.716L254.603 127.505ZM257.833 124.786C258.68 123.629 259.216 122.309 259.448 120.844L257.473 120.531C257.288 121.699 256.868 122.718 256.218 123.606L257.833 124.786ZM259.447 120.851L262.558 102.073L260.584 101.746L257.474 120.524L259.447 120.851ZM286.915 109.722L285.916 109.715L285.909 110.722H286.915V109.722ZM285.523 106.44L284.891 107.215L284.895 107.218L285.523 106.44ZM278.435 105.872L278.805 106.801L278.81 106.799L278.435 105.872ZM276.163 107.406L275.419 106.738L275.418 106.738L276.163 107.406ZM275.097 109.608L276.082 109.783L276.083 109.775L276.085 109.767L275.097 109.608ZM275.282 111.398L274.384 111.838L274.387 111.845L274.391 111.852L275.282 111.398ZM276.376 112.662L275.791 113.473L275.801 113.48L275.81 113.486L276.376 112.662ZM277.967 113.5L277.6 114.431L277.607 114.433L277.614 114.436L277.967 113.5ZM279.643 114.04L279.904 113.075L279.897 113.073L279.643 114.04ZM282.37 114.778L282.109 115.744L282.12 115.747L282.37 114.778ZM285.055 115.702L284.662 116.621L284.662 116.621L285.055 115.702ZM289.359 122.96L290.344 123.13L290.345 123.125L289.359 122.96ZM287.356 127.349L286.583 126.714L286.583 126.714L287.356 127.349ZM283.194 130.375L282.8 129.456L283.194 130.375ZM271.702 130.446L271.279 131.352L271.281 131.353L271.702 130.446ZM268.45 127.506L267.57 127.981L267.571 127.984L268.45 127.506ZM267.711 122.96V121.96H266.818L266.717 122.847L267.711 122.96ZM272.129 122.96L273.124 123.059L273.233 121.96H272.129V122.96ZM272.697 125.588L271.873 126.156L271.878 126.162L271.882 126.168L272.697 125.588ZM274.771 127.136L274.413 128.07L274.422 128.074L274.771 127.136ZM281.219 127.051L281.572 127.987L281.579 127.984L281.219 127.051ZM283.776 125.403L284.498 126.096L284.502 126.091L283.776 125.403ZM285.012 122.918L284.027 122.744L284.026 122.752L284.025 122.76L285.012 122.918ZM284.643 120.801L283.826 121.378L283.833 121.388L284.643 120.801ZM282.881 119.438L282.461 120.345L282.465 120.347L282.881 119.438ZM280.225 118.486L279.95 119.447L279.959 119.45L280.225 118.486ZM276.944 117.548L277.219 116.587L277.218 116.587L276.944 117.548ZM271.887 114.75L271.155 115.431L271.155 115.431L271.887 114.75ZM270.651 109.864L269.665 109.697L269.664 109.707L270.651 109.864ZM276.93 102.562L277.313 103.486L277.317 103.484L276.93 102.562ZM287.384 102.562L286.932 103.454L286.932 103.454L287.384 102.562ZM290.452 105.46L289.572 105.934L289.572 105.934L290.452 105.46ZM291.148 109.722V110.722H292.033L292.141 109.844L291.148 109.722ZM287.915 109.728C287.927 108.057 287.371 106.648 286.152 105.663L284.895 107.218C285.55 107.748 285.923 108.526 285.916 109.715L287.915 109.728ZM286.156 105.666C284.991 104.715 283.439 104.304 281.631 104.304V106.304C283.157 106.304 284.2 106.651 284.891 107.215L286.156 105.666ZM281.631 104.304C280.333 104.304 279.137 104.51 278.061 104.945L278.81 106.799C279.609 106.476 280.544 106.304 281.631 106.304V104.304ZM278.066 104.943C277.014 105.361 276.122 105.955 275.419 106.738L276.906 108.075C277.377 107.551 278 107.121 278.805 106.801L278.066 104.943ZM275.418 106.738C274.717 107.52 274.274 108.429 274.11 109.449L276.085 109.767C276.186 109.14 276.453 108.581 276.907 108.074L275.418 106.738ZM274.113 109.433C273.962 110.279 274.023 111.101 274.384 111.838L276.18 110.957C276.049 110.69 275.986 110.319 276.082 109.783L274.113 109.433ZM274.391 111.852C274.722 112.501 275.193 113.043 275.791 113.473L276.96 111.85C276.611 111.599 276.354 111.299 276.173 110.944L274.391 111.852ZM275.81 113.486C276.359 113.863 276.957 114.177 277.6 114.431L278.333 112.569C277.821 112.368 277.359 112.124 276.942 111.837L275.81 113.486ZM277.614 114.436C278.22 114.664 278.812 114.855 279.388 115.007L279.897 113.073C279.394 112.94 278.868 112.771 278.319 112.564L277.614 114.436ZM279.381 115.005L282.109 115.744L282.631 113.813L279.904 113.075L279.381 115.005ZM282.12 115.747C282.948 115.96 283.795 116.251 284.662 116.621L285.447 114.782C284.496 114.376 283.553 114.051 282.62 113.81L282.12 115.747ZM284.662 116.621C285.477 116.97 286.207 117.426 286.856 117.99L288.168 116.481C287.359 115.777 286.45 115.21 285.447 114.782L284.662 116.621ZM286.856 117.99C287.457 118.513 287.908 119.161 288.212 119.952L290.079 119.235C289.663 118.151 289.026 117.227 288.168 116.481L286.856 117.99ZM288.212 119.952C288.491 120.678 288.57 121.61 288.372 122.796L290.345 123.125C290.583 121.697 290.52 120.384 290.079 119.235L288.212 119.952ZM288.373 122.79C288.118 124.269 287.523 125.571 286.583 126.714L288.128 127.985C289.291 126.571 290.031 124.947 290.344 123.13L288.373 122.79ZM286.583 126.714C285.647 127.854 284.396 128.772 282.8 129.456L283.588 131.294C285.439 130.501 286.963 129.402 288.128 127.985L286.583 126.714ZM282.8 129.456C281.224 130.131 279.365 130.483 277.2 130.483V132.483C279.58 132.483 281.716 132.096 283.588 131.294L282.8 129.456ZM277.2 130.483C275.122 130.483 273.443 130.152 272.124 129.539L271.281 131.353C272.935 132.122 274.921 132.483 277.2 132.483V130.483ZM272.126 129.54C270.816 128.927 269.904 128.085 269.328 127.027L267.571 127.984C268.378 129.464 269.634 130.582 271.279 131.352L272.126 129.54ZM269.329 127.03C268.754 125.967 268.524 124.666 268.705 123.073L266.717 122.847C266.5 124.759 266.762 126.488 267.57 127.981L269.329 127.03ZM267.711 123.96H272.129V121.96H267.711V123.96ZM271.133 122.862C271.012 124.089 271.226 125.216 271.873 126.156L273.52 125.021C273.201 124.558 273.037 123.933 273.124 123.059L271.133 122.862ZM271.882 126.168C272.503 127.039 273.362 127.668 274.413 128.07L275.128 126.203C274.398 125.923 273.876 125.52 273.511 125.008L271.882 126.168ZM274.422 128.074C275.442 128.453 276.572 128.634 277.796 128.634V126.634C276.767 126.634 275.879 126.482 275.12 126.199L274.422 128.074ZM277.796 128.634C279.151 128.634 280.413 128.423 281.572 127.987L280.867 126.115C279.962 126.456 278.942 126.634 277.796 126.634V128.634ZM281.579 127.984C282.729 127.541 283.711 126.916 284.498 126.096L283.055 124.711C282.497 125.292 281.774 125.766 280.86 126.118L281.579 127.984ZM284.502 126.091C285.31 125.238 285.816 124.225 286 123.076L284.025 122.76C283.906 123.504 283.587 124.149 283.05 124.716L284.502 126.091ZM285.997 123.091C286.181 122.044 286.052 121.042 285.453 120.215L283.833 121.388C284.029 121.659 284.146 122.068 284.027 122.744L285.997 123.091ZM285.459 120.224C284.944 119.495 284.199 118.941 283.298 118.528L282.465 120.347C283.136 120.654 283.565 121.009 283.826 121.378L285.459 120.224ZM283.302 118.53C282.467 118.143 281.528 117.808 280.491 117.522L279.959 119.45C280.911 119.713 281.743 120.012 282.461 120.345L283.302 118.53ZM280.5 117.524L277.219 116.587L276.669 118.51L279.95 119.447L280.5 117.524ZM277.218 116.587C275.105 115.984 273.602 115.125 272.619 114.069L271.155 115.431C272.463 116.837 274.332 117.844 276.67 118.51L277.218 116.587ZM272.619 114.069C271.729 113.113 271.353 111.817 271.639 110.021L269.664 109.707C269.305 111.963 269.753 113.925 271.155 115.431L272.619 114.069ZM271.637 110.031C271.89 108.538 272.509 107.248 273.499 106.141L272.008 104.808C270.763 106.201 269.98 107.837 269.665 109.697L271.637 110.031ZM273.499 106.141C274.509 105.011 275.774 104.124 277.313 103.486L276.547 101.639C274.752 102.383 273.233 103.438 272.008 104.808L273.499 106.141ZM277.317 103.484C278.852 102.839 280.528 102.511 282.356 102.511V100.511C280.283 100.511 278.341 100.884 276.542 101.641L277.317 103.484ZM282.356 102.511C284.21 102.511 285.722 102.841 286.932 103.454L287.836 101.671C286.281 100.882 284.441 100.511 282.356 100.511V102.511ZM286.932 103.454C288.153 104.073 289.016 104.902 289.572 105.934L291.333 104.986C290.563 103.556 289.38 102.453 287.836 101.671L286.932 103.454ZM289.572 105.934C290.121 106.955 290.334 108.161 290.156 109.599L292.141 109.844C292.361 108.063 292.109 106.428 291.333 104.986L289.572 105.934ZM291.148 108.722H286.915V110.722H291.148V108.722ZM293.268 131L292.282 130.836L292.089 132H293.268V131ZM298.098 101.909V100.909H297.25L297.112 101.745L298.098 101.909ZM316.337 101.909L317.323 102.072L317.516 100.909H316.337V101.909ZM315.712 105.688V106.688H316.56L316.698 105.851L315.712 105.688ZM301.862 105.688V104.688H301.015L300.876 105.523L301.862 105.688ZM300.385 114.551L299.399 114.387L299.204 115.551H300.385V114.551ZM313.283 114.551L314.269 114.715L314.462 113.551H313.283V114.551ZM312.658 118.315V119.315H313.505L313.644 118.479L312.658 118.315ZM299.76 118.315V117.315H298.912L298.773 118.152L299.76 118.315ZM298.283 127.222L297.296 127.058L297.103 128.222H298.283V127.222ZM312.303 127.222L313.289 127.385L313.482 126.222H312.303V127.222ZM311.678 131V132H312.526L312.664 131.163L311.678 131ZM294.255 131.164L299.085 102.073L297.112 101.745L292.282 130.836L294.255 131.164ZM298.098 102.909H316.337V100.909H298.098V102.909ZM315.35 101.746L314.725 105.524L316.698 105.851L317.323 102.072L315.35 101.746ZM315.712 104.688H301.862V106.688H315.712V104.688ZM300.876 105.523L299.399 114.387L301.371 114.716L302.849 105.852L300.876 105.523ZM300.385 115.551H313.283V113.551H300.385V115.551ZM312.296 114.387L311.671 118.152L313.644 118.479L314.269 114.715L312.296 114.387ZM312.658 117.315H299.76V119.315H312.658V117.315ZM298.773 118.152L297.296 127.058L299.269 127.385L300.746 118.479L298.773 118.152ZM298.283 128.222H312.303V126.222H298.283V128.222ZM311.316 127.058L310.691 130.837L312.664 131.163L313.289 127.385L311.316 127.058ZM311.678 130H293.268V132H311.678V130ZM326.589 101.909L327.575 102.073L327.768 100.909H326.589V101.909ZM321.759 131V132H322.607L322.746 131.164L321.759 131ZM317.37 131L316.384 130.836L316.19 132H317.37V131ZM322.2 101.909V100.909H321.352L321.213 101.745L322.2 101.909ZM323.364 97.804L322.657 98.5111L322.664 98.5178L322.671 98.5243L323.364 97.804ZM322.668 96.0142L323.667 96.0689L323.667 96.0618L323.668 96.0547L322.668 96.0142ZM323.535 94.2244L324.202 94.969L324.209 94.9626L323.535 94.2244ZM327.327 94.2244L326.62 94.9316L326.627 94.9382L327.327 94.2244ZM328.023 96.0142L327.025 95.9602L327.024 95.9731L328.023 96.0142ZM327.157 97.804L327.825 98.5486L327.832 98.5422L327.157 97.804ZM325.602 101.745L320.773 130.836L322.746 131.164L327.575 102.073L325.602 101.745ZM321.759 130H317.37V132H321.759V130ZM318.357 131.164L323.186 102.073L321.213 101.745L316.384 130.836L318.357 131.164ZM322.2 102.909H326.589V100.909H322.2V102.909ZM325.225 97.5426C324.747 97.5426 324.377 97.3913 324.058 97.0837L322.671 98.5243C323.374 99.2015 324.245 99.5426 325.225 99.5426V97.5426ZM324.071 97.0969C323.765 96.7902 323.645 96.4683 323.667 96.0689L321.67 95.9595C321.616 96.9426 321.96 97.814 322.657 98.5111L324.071 97.0969ZM323.668 96.0547C323.684 95.639 323.843 95.2916 324.202 94.969L322.867 93.4799C322.129 94.1421 321.709 94.9879 321.669 95.9737L323.668 96.0547ZM324.209 94.9626C324.576 94.6278 324.98 94.4716 325.467 94.4716V92.4716C324.476 92.4716 323.592 92.8173 322.86 93.4862L324.209 94.9626ZM325.467 94.4716C325.952 94.4716 326.314 94.6255 326.62 94.9315L328.035 93.5173C327.337 92.8196 326.458 92.4716 325.467 92.4716V94.4716ZM326.627 94.9382C326.924 95.2299 327.047 95.547 327.025 95.9602L329.022 96.0682C329.075 95.0799 328.734 94.2038 328.028 93.5106L326.627 94.9382ZM327.024 95.9731C327.008 96.3766 326.851 96.7287 326.482 97.0658L327.832 98.5422C328.561 97.8755 328.982 97.0343 329.023 96.0553L327.024 95.9731ZM326.489 97.0594C326.124 97.3871 325.718 97.5426 325.225 97.5426V99.5426C326.21 99.5426 327.092 99.2057 327.825 98.5485L326.489 97.0594ZM355.538 111.369V112.369H356.532L356.538 111.375L355.538 111.369ZM351.191 111.369L350.191 111.389L350.211 112.369H351.191V111.369ZM350.665 108.869L349.755 109.283L349.757 109.288L350.665 108.869ZM349.302 107.037L348.64 107.786L348.646 107.792L348.653 107.798L349.302 107.037ZM347.299 105.901L347.615 104.952L347.615 104.952L347.299 105.901ZM336.134 110.631L335.291 110.094L335.291 110.094L336.134 110.631ZM333.947 116.724L334.933 116.889L334.933 116.888L333.947 116.724ZM334.089 122.591L335.045 122.299L335.045 122.299L334.089 122.591ZM336.532 126.185L335.953 127L335.96 127.005L336.532 126.185ZM343.464 127.023L343.728 127.987L343.735 127.985L343.464 127.023ZM345.992 125.901L345.457 125.056L345.992 125.901ZM348.052 124.097L347.287 123.452L347.286 123.453L348.052 124.097ZM349.472 121.625V120.625H348.774L348.534 121.28L349.472 121.625ZM353.876 121.625L354.826 121.937L355.257 120.625H353.876V121.625ZM351.873 125.574L351.062 124.988L351.062 124.988L351.873 125.574ZM348.819 128.67L348.223 127.867L348.223 127.867L348.819 128.67ZM344.955 130.688L344.635 129.74L344.635 129.74L344.955 130.688ZM333.947 129.565L333.382 130.391L333.387 130.394L333.947 129.565ZM330.069 124.31L329.123 124.633L329.124 124.636L330.069 124.31ZM329.671 116.185L328.685 116.017L328.684 116.024L329.671 116.185ZM332.654 108.315L331.824 107.757L331.824 107.758L332.654 108.315ZM338.052 103.273L338.533 104.149L338.535 104.149L338.052 103.273ZM349.245 102.179L348.921 103.125L348.927 103.127L349.245 102.179ZM352.597 104.111L351.925 104.851L351.932 104.858L352.597 104.111ZM354.785 107.207L353.862 107.594L353.863 107.596L354.785 107.207ZM355.538 110.369H351.191V112.369H355.538V110.369ZM352.191 111.349C352.17 110.291 351.973 109.318 351.574 108.451L349.757 109.288C350.021 109.86 350.175 110.554 350.191 111.389L352.191 111.349ZM351.576 108.456C351.187 107.6 350.646 106.869 349.951 106.276L348.653 107.798C349.113 108.19 349.481 108.68 349.755 109.283L351.576 108.456ZM349.964 106.287C349.288 105.691 348.501 105.247 347.615 104.952L346.983 106.849C347.631 107.065 348.179 107.379 348.64 107.786L349.964 106.287ZM347.615 104.952C346.736 104.659 345.8 104.517 344.813 104.517V106.517C345.607 106.517 346.327 106.631 346.983 106.849L347.615 104.952ZM344.813 104.517C342.921 104.517 341.138 105 339.483 105.958L340.484 107.689C341.84 106.905 343.278 106.517 344.813 106.517V104.517ZM339.483 105.958C337.82 106.92 336.426 108.31 335.291 110.094L336.978 111.168C337.964 109.618 339.136 108.47 340.484 107.689L339.483 105.958ZM335.291 110.094C334.143 111.897 333.375 114.062 332.96 116.561L334.933 116.888C335.314 114.595 336.004 112.698 336.978 111.168L335.291 110.094ZM332.96 116.56C332.557 118.981 332.589 121.104 333.132 122.883L335.045 122.299C334.622 120.915 334.56 119.127 334.933 116.889L332.96 116.56ZM333.132 122.883C333.668 124.637 334.596 126.036 335.953 127L337.111 125.37C336.176 124.705 335.475 123.708 335.045 122.299L333.132 122.883ZM335.96 127.005C337.308 127.944 338.902 128.392 340.694 128.392V126.392C339.247 126.392 338.067 126.035 337.104 125.364L335.96 127.005ZM340.694 128.392C341.729 128.392 342.741 128.257 343.728 127.987L343.2 126.058C342.388 126.281 341.553 126.392 340.694 126.392V128.392ZM343.735 127.985C344.735 127.704 345.667 127.291 346.528 126.745L345.457 125.056C344.764 125.495 344.011 125.83 343.193 126.06L343.735 127.985ZM346.528 126.745C347.392 126.197 348.156 125.528 348.818 124.74L347.286 123.453C346.755 124.086 346.146 124.619 345.457 125.056L346.528 126.745ZM348.817 124.741C349.501 123.928 350.032 123.001 350.411 121.97L348.534 121.28C348.231 122.105 347.814 122.826 347.287 123.452L348.817 124.741ZM349.472 122.625H353.876V120.625H349.472V122.625ZM352.926 121.313C352.483 122.657 351.862 123.881 351.062 124.988L352.684 126.159C353.607 124.88 354.321 123.472 354.826 121.937L352.926 121.313ZM351.062 124.988C350.26 126.099 349.314 127.058 348.223 127.867L349.415 129.474C350.672 128.541 351.762 127.435 352.684 126.159L351.062 124.988ZM348.223 127.867C347.134 128.676 345.939 129.3 344.635 129.74L345.275 131.635C346.775 131.128 348.156 130.408 349.415 129.474L348.223 127.867ZM344.635 129.74C343.342 130.177 341.969 130.398 340.509 130.398V132.398C342.174 132.398 343.765 132.145 345.275 131.635L344.635 129.74ZM340.509 130.398C338.107 130.398 336.122 129.828 334.506 128.737L333.387 130.394C335.388 131.746 337.779 132.398 340.509 132.398V130.398ZM334.511 128.74C332.907 127.643 331.737 126.075 331.014 123.983L329.124 124.636C329.972 127.09 331.388 129.026 333.382 130.391L334.511 128.74ZM331.015 123.986C330.306 121.912 330.165 119.378 330.658 116.345L328.684 116.024C328.155 119.279 328.278 122.162 329.123 124.633L331.015 123.986ZM330.657 116.353C331.158 113.409 332.108 110.924 333.485 108.873L331.824 107.758C330.264 110.082 329.226 112.843 328.685 116.017L330.657 116.353ZM333.484 108.873C334.881 106.796 336.565 105.23 338.533 104.149L337.571 102.396C335.297 103.645 333.382 105.441 331.824 107.757L333.484 108.873ZM338.535 104.149C340.515 103.057 342.65 102.511 344.955 102.511V100.511C342.318 100.511 339.85 101.14 337.569 102.397L338.535 104.149ZM344.955 102.511C346.422 102.511 347.741 102.72 348.921 103.125L349.57 101.233C348.154 100.748 346.613 100.511 344.955 100.511V102.511ZM348.927 103.127C350.103 103.522 351.098 104.099 351.925 104.851L353.27 103.371C352.222 102.418 350.981 101.707 349.563 101.231L348.927 103.127ZM351.932 104.858C352.763 105.597 353.406 106.504 353.862 107.594L355.707 106.821C355.141 105.468 354.326 104.311 353.262 103.364L351.932 104.858ZM353.863 107.596C354.313 108.662 354.546 109.911 354.538 111.363L356.538 111.375C356.548 109.702 356.279 108.177 355.706 106.819L353.863 107.596Z" fill="black" mask="url(#path-7-outside-1_1_10)"/>
</g>
<defs>
<filter id="filter0_d_1_10" x="198.136" y="93.4716" width="161.416" height="46.0114" filterUnits="userSpaceOnUse" color-interpolation-filters="sRGB">
<feFlood flood-opacity="0" result="BackgroundImageFix"/>
<feColorMatrix in="SourceAlpha" type="matrix" values="0 0 0 0 0 0 0 0 0 0 0 0 0 0 0 0 0 0 127 0" result="hardAlpha"/>
<feOffset dy="4"/>
<feGaussianBlur stdDeviation="2"/>
<feComposite in2="hardAlpha" operator="out"/>
<feColorMatrix type="matrix" values="0 0 0 0 0 0 0 0 0 0 0 0 0 0 0 0 0 0 0.25 0"/>
<feBlend mode="normal" in2="BackgroundImageFix" result="effect1_dropShadow_1_10"/>
<feBlend mode="normal" in="SourceGraphic" in2="effect1_dropShadow_1_10" result="shape"/>
</filter>
</defs>
</svg>
