<svg width="21" height="23" viewBox="0 0 21 23" fill="none" xmlns="http://www.w3.org/2000/svg">
<path d="M10.5 23C11.2625 23 11.9938 22.6971 12.5329 22.158C13.0721 21.6188 13.375 20.8875 13.375 20.125H7.625C7.625 20.8875 7.9279 21.6188 8.46707 22.158C9.00624 22.6971 9.7375 23 10.5 23ZM11.9303 1.57985C11.9504 1.37997 11.9283 1.17811 11.8656 0.987273C11.8028 0.796441 11.7008 0.620878 11.566 0.471908C11.4313 0.322937 11.2668 0.203867 11.0831 0.122375C10.8995 0.0408829 10.7009 -0.0012207 10.5 -0.0012207C10.2991 -0.0012207 10.1005 0.0408829 9.91685 0.122375C9.73324 0.203867 9.56875 0.322937 9.43398 0.471908C9.29922 0.620878 9.19717 0.796441 9.13442 0.987273C9.07168 1.17811 9.04962 1.37997 9.06969 1.57985C7.44491 1.91033 5.98427 2.79218 4.9351 4.07607C3.88593 5.35996 3.31271 6.96699 3.3125 8.62504C3.3125 10.2034 2.59375 17.25 0.4375 18.6875H20.5625C18.4062 17.25 17.6875 10.2034 17.6875 8.62504C17.6875 5.14629 15.215 2.24254 11.9303 1.57985Z" fill="#1ED760"/>
</svg>
